# xmcd CD database file
#
# Track frame offsets:
#	150
#	13106
#	28496
#	49561
#	68131
#	85057
#	100828
#	118432
#	135144
#	153164
#	170098
#	189792
#	205017
#	220221
#	233881
#	251135
#
# Disc length: 3583 seconds
#
# Revision: 0
# Processed by: cddbd v1.4PL0 Copyright (c) Steve Scherf et al.
# Submitted via: CdAid (MTCDDB.DLL V2003.12.21)
#
DISCID=d80dfd10
DTITLE=Various Artist - Country Fever Vol 4
DYEAR=2001
DGENRE=Country
TTITLE0=Don't Rock The Jukebox
TTITLE1=They Don't Make "Em Like That Anymore
TTITLE2=We Tell Ourselves
TTITLE3=If I Were You
TTITLE4=Dust On The Bottle
TTITLE5=Night Is Falling In My Heart
TTITLE6=I Can Love You Better
TTITLE7=The Dance
TTITLE8=What Might Have Been
TTITLE9=Wild Angels
TTITLE10=The River and The Highway
TTITLE11=The Heart Won't Lie
TTITLE12=Little Goodbye
TTITLE13=Indian Outlaw
TTITLE14=Does That Blue Moon Ever Shine On You
TTITLE15=The Song Remember When
EXTD=ID3G:   2 YEAR: 2001
EXTT0=Alan Jackson
EXTT1=Boy Howdy
EXTT2=Clint Black
EXTT3=Collin Raye
EXTT4=David Lee Murphy
EXTT5=Diamond Rio
EXTT6=Dixie Chicks
EXTT7=Garth Brooks
EXTT8=Little Texas
EXTT9=Martina McBride
EXTT10=Pam Tillis
EXTT11=Reba McEntire and Vince Gill
EXTT12=She Daisey
EXTT13=Tim McGraw
EXTT14=Toby Keith
EXTT15=Trisha Yearwood
PLAYORDER=
